<svg width="34" height="34" viewBox="0 0 34 34" fill="none" xmlns="http://www.w3.org/2000/svg">
<path d="M22.4125 23.85L25.2125 21.05C25.5896 20.6776 26.0667 20.4226 26.586 20.3161C27.1052 20.2096 27.6442 20.2562 28.1375 20.4501L31.55 21.8125C32.0485 22.0149 32.4759 22.3603 32.7785 22.8052C33.081 23.2501 33.2451 23.7746 33.25 24.3125V30.5625C33.2471 30.9285 33.1701 31.2901 33.0238 31.6256C32.8775 31.961 32.6648 32.2634 32.3985 32.5145C32.1322 32.7656 31.8179 32.9602 31.4744 33.0866C31.131 33.213 30.7655 33.2686 30.4 33.25C6.48748 31.7625 1.66248 11.5125 0.749984 3.76255C0.707625 3.38197 0.746328 2.99674 0.863544 2.63219C0.980761 2.26764 1.17384 1.93204 1.43007 1.64747C1.6863 1.3629 1.99988 1.13581 2.35018 0.981131C2.70048 0.826455 3.07956 0.747701 3.46248 0.750051H9.49998C10.0387 0.751646 10.5647 0.914385 11.0102 1.21734C11.4557 1.52029 11.8004 1.9496 12 2.45005L13.3625 5.86255C13.5628 6.35389 13.6139 6.89335 13.5094 7.41357C13.4049 7.93378 13.1495 8.41167 12.775 8.78755L9.97498 11.5876C9.97498 11.5876 11.5875 22.5 22.4125 23.85Z" fill="white"/>
</svg>
