<svg width="40" height="40" viewBox="0 0 40 40" fill="none" xmlns="http://www.w3.org/2000/svg">
<path d="M39.0933 9.64017C38.6749 10.9772 38.0629 12.2456 37.2767 13.4052L37.3083 13.3552C36.5617 14.5996 35.67 16.0374 34.6333 17.6685C33.7445 18.9563 33.2739 19.6229 33.2217 19.6685C32.9841 19.966 32.8304 20.3216 32.7767 20.6985L32.775 20.7102C32.8175 21.0498 32.9751 21.3645 33.2217 21.6018L33.8883 22.3452C37.455 26.0107 39.4611 28.5374 39.9067 29.9252C39.9912 30.1531 40.0183 30.3984 39.9858 30.6393C39.9532 30.8802 39.862 31.1095 39.72 31.3068L39.7233 31.3018C39.5556 31.4749 39.351 31.6081 39.1248 31.6914C38.8987 31.7748 38.6566 31.8063 38.4167 31.7835H38.4233H34.03C33.4683 31.7835 32.9517 31.5868 32.5467 31.2602L32.5517 31.2635C31.9734 30.7894 31.4426 30.2602 30.9667 29.6835L30.9517 29.6635C30.1839 28.7957 29.5028 28.0652 28.9083 27.4718C26.9283 25.5896 25.4672 24.6485 24.525 24.6485C24.2209 24.6213 23.9168 24.7008 23.665 24.8735L23.67 24.8702C23.5618 25.0058 23.4824 25.1621 23.4366 25.3294C23.3907 25.4967 23.3794 25.6717 23.4033 25.8435V25.8368C23.3386 26.6145 23.3174 27.3952 23.34 28.1752V28.1468V30.0785C23.3873 30.3092 23.3711 30.5485 23.293 30.7707C23.2149 30.9929 23.0779 31.1898 22.8967 31.3402L22.895 31.3418C22.051 31.7232 21.1218 31.8766 20.2 31.7868L20.2217 31.7885C17.6987 31.7452 15.2352 31.0146 13.0967 29.6752L13.155 29.7085C10.689 28.2218 8.57528 26.2173 6.96001 23.8335L6.91501 23.7635C5.34707 21.6726 3.96882 19.446 2.79667 17.1102L2.68001 16.8535C1.89894 15.3409 1.21262 13.7812 0.625005 12.1835L0.525005 11.8752C0.252564 11.0457 0.079138 10.187 0.00833822 9.31684L0.00500488 9.27517C0.00500488 8.43295 0.50056 8.01184 1.49167 8.01184H5.87501C6.31815 7.97713 6.75806 8.11106 7.10667 8.38684L7.10334 8.3835C7.43667 8.7485 7.68334 9.19684 7.80501 9.69684L7.81001 9.71684C8.53416 11.7907 9.41849 13.8051 10.455 15.7418L10.3433 15.5135C11.0925 17.0352 11.9991 18.4742 13.0483 19.8068L13.01 19.7552C13.8989 20.8463 14.5922 21.3918 15.09 21.3918L15.1433 21.3935C15.2605 21.3937 15.3757 21.363 15.4772 21.3044C15.5788 21.2459 15.6631 21.1617 15.7217 21.0602L15.7233 21.0568C15.8829 20.6391 15.9461 20.1907 15.9083 19.7452V19.7552V13.2902C15.8772 12.5572 15.6957 11.8384 15.375 11.1785L15.3883 11.2102C15.1939 10.7908 14.9414 10.4008 14.6383 10.0518L14.6433 10.0585C14.3639 9.77948 14.182 9.41761 14.125 9.02684L14.1233 9.01684C14.1233 8.7335 14.2533 8.4785 14.4567 8.31184L14.4583 8.31017C14.6676 8.11853 14.9413 8.01263 15.225 8.0135H22.1483C22.3221 7.99322 22.4982 8.01641 22.6608 8.08099C22.8235 8.14557 22.9675 8.24952 23.08 8.3835L23.0817 8.38517C23.2922 8.77413 23.3843 9.21617 23.3467 9.65684V9.6485V18.2702C23.3201 18.6102 23.3993 18.9502 23.5733 19.2435L23.57 19.2368C23.631 19.3281 23.7136 19.4028 23.8104 19.4546C23.9072 19.5063 24.0152 19.5334 24.125 19.5335H24.1267C24.4078 19.5152 24.6788 19.422 24.9117 19.2635L24.9067 19.2668C25.36 18.9552 25.75 18.6002 26.0883 18.1985L26.095 18.1902C27.1247 17.0251 28.0478 15.7701 28.8533 14.4402L28.9183 14.3235C29.4917 13.3735 30.1117 12.2035 30.6733 11.0018L30.7767 10.7568L31.52 9.27017C31.6509 8.88578 31.9033 8.55444 32.2392 8.32622C32.5751 8.098 32.9761 7.98531 33.3817 8.00517H33.3767H37.7617C38.9461 8.00517 39.3906 8.55017 39.095 9.64017H39.0933Z" fill="white"/>
</svg>
